HIERARCHY
ROOT hips
{
	OFFSET 0.000000 104.274902 0.000000
	CHANNELS 6 Xposition Yposition Zposition Xrotation Yrotation Zrotation
	JOINT spine
	{
		OFFSET 0.000000 10.181549 0.131524
		CHANNELS 6 Xposition Yposition Zposition Xrotation Yrotation Zrotation
		JOINT chest
		{
			OFFSET 0.000000 9.893990 -1.470706
			CHANNELS 3 Xrotation Yrotation Zrotation
			JOINT upperChest
			{
				OFFSET 0.000000 9.220787 -1.370637
				CHANNELS 3 Xrotation Yrotation Zrotation
				JOINT neck
				{
					OFFSET 0.000000 16.740372 -2.049022
					CHANNELS 6 Xposition Yposition Zposition Xrotation Yrotation Zrotation
					JOINT head
					{
						OFFSET 0.000000 9.617859 1.684976
						CHANNELS 6 Xposition Yposition Zposition Xrotation Yrotation Zrotation
						JOINT headEnd
						{
							OFFSET 0.000000 22.037384 7.501072
							CHANNELS 6 Xposition Yposition Zposition Xrotation Yrotation Zrotation
							End Site
							{
								OFFSET 0.000000 23.106567 -2.828246
							}
						}
					}
				}
				JOINT rightShoulder
				{
					OFFSET -4.570000 11.014877 -2.160840
					CHANNELS 6 Xposition Yposition Zposition Xrotation Yrotation Zrotation
					JOINT rightUpperArm
					{
						OFFSET -10.592867 -0.524796 -2.232105
						CHANNELS 3 Xrotation Yrotation Zrotation
						JOINT rightLowerArm
						{
							OFFSET -27.841497 0.000000 -0.000002
							CHANNELS 3 Xrotation Yrotation Zrotation
							JOINT rightHand
							{
								OFFSET -28.328812 0.000000 -0.000001
								CHANNELS 3 Xrotation Yrotation Zrotation
								JOINT rightThumbProximal
								{
									OFFSET -2.464798 -1.573990 2.681911
									CHANNELS 6 Xposition Yposition Zposition Xrotation Yrotation Zrotation
									JOINT rightThumbIntermediate
									{
										OFFSET -3.244781 -1.873383 1.873376
										CHANNELS 3 Xrotation Yrotation Zrotation
										JOINT rightThumbDistal
										{
											OFFSET -2.646263 -1.527817 1.527818
											CHANNELS 6 Xposition Yposition Zposition Xrotation Yrotation Zrotation
											JOINT rightHandThumb4
											{
												OFFSET -1.994591 -1.151581 1.151575
												CHANNELS 6 Xposition Yposition Zposition Xrotation Yrotation Zrotation
												End Site
												{
													OFFSET -1.860176 -1.142715 1.365483
												}
											}
										}
									}
								}
								JOINT rightIndexProximal
								{
									OFFSET -9.108299 -0.517883 2.259803
									CHANNELS 6 Xposition Yposition Zposition Xrotation Yrotation Zrotation
									JOINT rightIndexIntermediate
									{
										OFFSET -3.699997 0.000000 0.000000
										CHANNELS 3 Xrotation Yrotation Zrotation
										JOINT rightIndexDistal
										{
											OFFSET -2.850006 0.000000 0.000000
											CHANNELS 3 Xrotation Yrotation Zrotation
											JOINT rightHandIndex4
											{
												OFFSET -2.772194 0.000000 0.000000
												CHANNELS 3 Xrotation Yrotation Zrotation
												End Site
												{
													OFFSET -2.772202 0.000000 -0.000484
												}
											}
										}
									}
								}
								JOINT rightMiddleProximal
								{
									OFFSET -9.532501 0.000000 -0.000000
									CHANNELS 6 Xposition Yposition Zposition Xrotation Yrotation Zrotation
									JOINT rightMiddleIntermediate
									{
										OFFSET -3.699997 0.000000 0.000000
										CHANNELS 3 Xrotation Yrotation Zrotation
										JOINT rightMiddleDistal
										{
											OFFSET -2.949997 0.000000 0.000000
											CHANNELS 3 Xrotation Yrotation Zrotation
											JOINT rightHandMiddle4
											{
												OFFSET -2.946594 0.000000 0.000000
												CHANNELS 3 Xrotation Yrotation Zrotation
												End Site
												{
													OFFSET -2.946602 0.000000 -0.000982
												}
											}
										}
									}
								}
								JOINT rightRingProximal
								{
									OFFSET -9.103600 -0.043106 -1.865100
									CHANNELS 6 Xposition Yposition Zposition Xrotation Yrotation Zrotation
									JOINT rightRingIntermediate
									{
										OFFSET -3.379303 0.000000 0.000000
										CHANNELS 3 Xrotation Yrotation Zrotation
										JOINT rightRingDistal
										{
											OFFSET -2.889694 0.000000 0.000000
											CHANNELS 3 Xrotation Yrotation Zrotation
											JOINT rightHandRing4
											{
												OFFSET -2.638802 0.000000 0.000000
												CHANNELS 3 Xrotation Yrotation Zrotation
												End Site
												{
													OFFSET -2.638802 0.000000 0.004218
												}
											}
										}
									}
								}
								JOINT rightLittleProximal
								{
									OFFSET -8.076698 -0.486725 -3.806299
									CHANNELS 6 Xposition Yposition Zposition Xrotation Yrotation Zrotation
									JOINT rightLittleIntermediate
									{
										OFFSET -3.600006 0.000000 0.000000
										CHANNELS 3 Xrotation Yrotation Zrotation
										JOINT rightLittleDistal
										{
											OFFSET -2.099998 0.000000 0.000000
											CHANNELS 3 Xrotation Yrotation Zrotation
											JOINT rightHandPinky4
											{
												OFFSET -2.115791 0.000000 0.000000
												CHANNELS 3 Xrotation Yrotation Zrotation
												End Site
												{
													OFFSET -2.115799 0.000000 0.000174
												}
											}
										}
									}
								}
							}
						}
					}
				}
				JOINT leftShoulder
				{
					OFFSET 4.570400 11.014679 -2.160816
					CHANNELS 6 Xposition Yposition Zposition Xrotation Yrotation Zrotation
					JOINT leftUpperArm
					{
						OFFSET 10.592373 -0.524597 -2.232116
						CHANNELS 3 Xrotation Yrotation Zrotation
						JOINT leftLowerArm
						{
							OFFSET 27.841488 0.000000 0.000001
							CHANNELS 3 Xrotation Yrotation Zrotation
							JOINT leftHand
							{
								OFFSET 28.328808 0.000000 -0.000000
								CHANNELS 3 Xrotation Yrotation Zrotation
								JOINT leftThumbProximal
								{
									OFFSET 2.466103 -1.576202 2.681698
									CHANNELS 6 Xposition Yposition Zposition Xrotation Yrotation Zrotation
									JOINT leftThumbIntermediate
									{
										OFFSET 3.243317 -1.872528 1.872530
										CHANNELS 3 Xrotation Yrotation Zrotation
										JOINT leftThumbDistal
										{
											OFFSET 2.647881 -1.528763 1.528754
											CHANNELS 6 Xposition Yposition Zposition Xrotation Yrotation Zrotation
											JOINT leftHandThumb4
											{
												OFFSET 1.998924 -1.154083 1.154080
												CHANNELS 6 Xposition Yposition Zposition Xrotation Yrotation Zrotation
												End Site
												{
													OFFSET 1.884041 -1.149155 1.337651
												}
											}
										}
									}
								}
								JOINT leftIndexProximal
								{
									OFFSET 9.109299 -0.518005 2.259900
									CHANNELS 6 Xposition Yposition Zposition Xrotation Yrotation Zrotation
									JOINT leftIndexIntermediate
									{
										OFFSET 3.699997 0.000000 0.000000
										CHANNELS 3 Xrotation Yrotation Zrotation
										JOINT leftIndexDistal
										{
											OFFSET 2.850006 0.000000 0.000000
											CHANNELS 3 Xrotation Yrotation Zrotation
											JOINT leftHandIndex4
											{
												OFFSET 2.774895 0.000000 0.000000
												CHANNELS 3 Xrotation Yrotation Zrotation
												End Site
												{
													OFFSET 2.774902 0.000000 -0.000072
												}
											}
										}
									}
								}
								JOINT leftMiddleProximal
								{
									OFFSET 9.533401 0.000000 0.000000
									CHANNELS 6 Xposition Yposition Zposition Xrotation Yrotation Zrotation
									JOINT leftMiddleIntermediate
									{
										OFFSET 3.699997 0.000000 0.000000
										CHANNELS 3 Xrotation Yrotation Zrotation
										JOINT leftMiddleDistal
										{
											OFFSET 2.949997 0.000000 0.000000
											CHANNELS 3 Xrotation Yrotation Zrotation
											JOINT leftHandMiddle4
											{
												OFFSET 2.952896 0.000000 0.000000
												CHANNELS 3 Xrotation Yrotation Zrotation
												End Site
												{
													OFFSET 2.952904 0.000000 0.000165
												}
											}
										}
									}
								}
								JOINT leftRingProximal
								{
									OFFSET 9.104500 -0.042999 -1.865101
									CHANNELS 6 Xposition Yposition Zposition Xrotation Yrotation Zrotation
									JOINT leftRingIntermediate
									{
										OFFSET 3.149994 0.000000 0.000000
										CHANNELS 3 Xrotation Yrotation Zrotation
										JOINT leftRingDistal
										{
											OFFSET 2.950005 0.000000 0.000000
											CHANNELS 3 Xrotation Yrotation Zrotation
											JOINT leftHandRing4
											{
												OFFSET 2.644302 0.000000 0.000000
												CHANNELS 3 Xrotation Yrotation Zrotation
												End Site
												{
													OFFSET 2.644302 0.000000 0.000083
												}
											}
										}
									}
								}
								JOINT leftLittleProximal
								{
									OFFSET 8.077805 -0.486893 -3.806302
									CHANNELS 6 Xposition Yposition Zposition Xrotation Yrotation Zrotation
									JOINT leftLittleIntermediate
									{
										OFFSET 3.600006 0.000000 0.000000
										CHANNELS 3 Xrotation Yrotation Zrotation
										JOINT leftLittleDistal
										{
											OFFSET 2.099998 0.000000 0.000000
											CHANNELS 3 Xrotation Yrotation Zrotation
											JOINT leftHandPinky4
											{
												OFFSET 2.125496 0.000000 0.000000
												CHANNELS 3 Xrotation Yrotation Zrotation
												End Site
												{
													OFFSET 2.125504 0.000000 -0.001254
												}
											}
										}
									}
								}
							}
						}
					}
				}
			}
		}
	}
	JOINT rightUpperLeg
	{
		OFFSET -8.207800 -6.751701 -1.599544
		CHANNELS 6 Xposition Yposition Zposition Xrotation Yrotation Zrotation
		JOINT rightLowerLeg
		{
			OFFSET 0.000004 -44.370152 0.345934
			CHANNELS 3 Xrotation Yrotation Zrotation
			JOINT rightFoot
			{
				OFFSET 0.000004 -44.423664 -3.043535
				CHANNELS 3 Xrotation Yrotation Zrotation
				JOINT rightToes
				{
					OFFSET 0.000001 -8.728691 10.710592
					CHANNELS 3 Xrotation Yrotation Zrotation
					JOINT rightToesEnd
					{
						OFFSET 0.000000 -0.000665 9.278101
						CHANNELS 3 Xrotation Yrotation Zrotation
						End Site
						{
							OFFSET 0.000000 -0.000665 9.278103
						}
					}
				}
			}
		}
	}
	JOINT leftUpperLeg
	{
		OFFSET 8.207800 -6.751701 -1.599544
		CHANNELS 6 Xposition Yposition Zposition Xrotation Yrotation Zrotation
		JOINT leftLowerLeg
		{
			OFFSET 0.000004 -44.370037 0.346940
			CHANNELS 3 Xrotation Yrotation Zrotation
			JOINT leftFoot
			{
				OFFSET 0.000004 -44.423611 -3.044388
				CHANNELS 3 Xrotation Yrotation Zrotation
				JOINT leftToes
				{
					OFFSET 0.000001 -8.728690 10.710592
					CHANNELS 3 Xrotation Yrotation Zrotation
					JOINT leftToesEnd
					{
						OFFSET 0.000000 -0.000680 9.278101
						CHANNELS 3 Xrotation Yrotation Zrotation
						End Site
						{
							OFFSET 0.000000 -0.000680 9.278101
						}
					}
				}
			}
		}
	}
}
MOTION
Frames: 4
Frame Time: 0.033333
193.870163 101.300629 187.816971 -177.366639 23.271001 176.747947 -0.000013 10.181558 0.131528 2.783224 -1.306147 -1.012692 5.588782 -2.628779 -0.695810 5.588778 -2.628781 -0.695809 -0.000014 16.740368 -2.049004 0.847198 -8.065692 -0.863577 -0.000028 9.617878 1.684983 -4.400895 -21.119807 9.892433 0.000030 22.037369 7.501083 -0.000000 0.000002 0.000000 -4.570009 11.014879 -2.160840 0.838748 0.598311 20.274570 3.481836 13.198914 61.011006 24.263444 10.259574 -5.067969 -5.980751 11.329202 -1.812762 -2.464797 -1.573990 2.681939 4.280803 -15.890124 -2.422287 1.836937 -18.253846 -10.474598 -2.646265 -1.527819 1.527835 -2.576141 5.196133 1.002210 -1.994594 -1.151593 1.151550 -0.000002 -0.000003 0.000001 -9.108304 -0.517882 2.259847 0.815699 -7.341108 29.157791 1.921622 0.060853 16.932186 4.528746 2.821027 11.169173 -0.000000 0.000001 0.000000 -9.532495 0.000014 0.000026 1.407106 -8.005368 40.252234 4.496532 0.856184 17.907009 6.072492 4.827154 12.436049 0.000001 0.000001 0.000000 -9.103605 -0.043108 -1.865084 2.288412 -9.822524 52.036035 5.775681 0.626590 14.653877 6.114404 6.591905 12.764643 -0.000001 0.000001 0.000001 -8.076689 -0.486730 -3.806268 0.338218 -8.339698 60.178058 8.289391 -0.760752 14.380707 10.669918 0.128443 12.856354 -0.000001 0.000001 0.000002 4.570399 11.014678 -2.160820 0.554056 -12.378499 -10.184238 -7.403490 -21.911112 -61.678917 29.594182 -18.101178 10.398177 -5.691126 -9.290230 -1.155072 2.466111 -1.576198 2.681719 44.596293 5.219655 31.157936 2.426592 20.932139 10.996087 2.647864 -1.528746 1.528749 -4.919813 -10.077531 -2.388547 1.998909 -1.154099 1.154104 0.000001 -0.000003 -0.000000 9.109305 -0.518009 2.259916 0.151989 4.943527 -1.638175 2.820244 1.655652 -38.330909 4.413796 -2.297972 -5.968703 0.000001 -0.000002 0.000002 9.533403 0.000007 0.000010 0.398725 6.167461 -16.901269 5.414330 0.826675 -39.294823 5.759514 -0.110551 -7.097909 0.000000 -0.000001 -0.000000 9.104515 -0.042993 -1.865087 0.946333 8.272356 -29.052175 6.596228 1.106065 -36.045340 5.813647 -0.147289 -11.497868 -0.000001 0.000001 0.000001 8.077796 -0.486873 -3.806288 0.962324 7.927189 -30.796039 9.105808 2.503115 -35.791400 9.816665 4.559764 -7.505627 0.000001 -0.000001 -0.000000 -8.207804 -6.751712 -1.599523 -24.393549 7.602287 -0.735138 51.171426 -27.776732 -0.840781 1.025834 -0.494049 4.697800 -5.648981 -0.273474 0.563954 -0.000002 -0.000002 -0.000001 8.207785 -6.751699 -1.599531 -8.445110 11.609933 -5.123213 21.426397 1.156523 0.156120 -11.204578 -0.514367 9.003477 -0.000021 0.022403 -0.000005 -0.000000 0.000001 0.000000 
194.941772 101.629997 185.268860 -177.320781 20.657178 176.194524 -0.000002 10.181543 0.131538 2.896247 -1.634731 -0.836387 5.815404 -3.227200 -0.575988 5.815402 -3.227202 -0.575988 -0.000015 16.740341 -2.049014 1.156077 -8.265110 -0.242988 0.000028 9.617867 1.684983 -4.621458 -21.455064 10.070410 -0.000004 22.037369 7.501085 -0.000000 -0.000002 0.000000 -4.570027 11.014895 -2.160842 0.911825 0.115739 21.267502 5.259565 13.821211 60.147848 25.072316 9.871392 -5.123417 -6.069777 11.229736 -1.001658 -2.464785 -1.573986 2.681906 4.280804 -15.890124 -2.422285 1.836937 -18.253850 -10.474601 -2.646265 -1.527804 1.527819 -2.576141 5.196133 1.002210 -1.994594 -1.151587 1.151569 -0.000000 -0.000006 0.000001 -9.108312 -0.517878 2.259819 0.815699 -7.341106 29.157794 1.921623 0.060852 16.932191 4.528745 2.821028 11.169176 0.000000 0.000002 0.000001 -9.532490 0.000003 0.000000 1.407106 -8.005368 40.252238 4.496532 0.856184 17.907009 6.072492 4.827157 12.436049 -0.000001 0.000000 0.000001 -9.103586 -0.043119 -1.865089 2.288414 -9.822524 52.036039 5.775680 0.626589 14.653874 6.114404 6.591906 12.764640 0.000000 0.000000 0.000002 -8.076681 -0.486731 -3.806293 0.338218 -8.339697 60.178065 8.289392 -0.760751 14.380702 10.669917 0.128443 12.856354 -0.000000 0.000001 -0.000000 4.570395 11.014685 -2.160816 0.622259 -13.397505 -9.322971 -8.838734 -23.065827 -61.369106 28.012580 -20.555275 10.909115 -5.706973 -9.338172 -1.196461 2.466111 -1.576198 2.681679 44.596300 5.219658 31.157940 2.426595 20.932143 10.996088 2.647921 -1.528749 1.528741 -4.919813 -10.077538 -2.388545 1.998929 -1.154063 1.154089 0.000001 0.000006 -0.000002 9.109302 -0.518014 2.259904 0.151989 4.943530 -1.638174 2.820244 1.655657 -38.330909 4.413798 -2.297972 -5.968702 -0.000001 -0.000001 -0.000003 9.533404 0.000007 -0.000009 0.398724 6.167457 -16.901272 5.414329 0.826675 -39.294823 5.759513 -0.110551 -7.097904 0.000002 -0.000002 -0.000000 9.104500 -0.042993 -1.865110 0.946332 8.272354 -29.052175 6.596228 1.106065 -36.045347 5.813647 -0.147288 -11.497862 0.000000 -0.000001 0.000003 8.077796 -0.486888 -3.806315 0.962324 7.927190 -30.796039 9.105808 2.503113 -35.791400 9.816667 4.559762 -7.505627 0.000002 -0.000002 0.000001 -8.207803 -6.751714 -1.599545 -25.124089 8.394751 -0.018492 42.748798 -26.730990 -0.810507 0.454575 -0.418178 4.039970 -2.527584 -0.137746 0.237541 -0.000000 -0.000003 0.000001 8.207794 -6.751715 -1.599536 -5.630537 12.228501 -4.268377 19.837111 -2.553753 -0.101322 -11.935030 -0.534909 9.384986 -0.020173 0.016908 0.014715 0.000000 -0.000000 0.000000 
195.923752 101.898323 182.652344 -177.640229 18.754793 175.972352 -0.000008 10.181536 0.131532 2.896754 -1.817231 -0.678003 5.808266 -3.564638 -0.591492 5.808258 -3.564640 -0.591493 0.000001 16.740358 -2.049016 1.519656 -8.447406 0.279367 -0.000014 9.617839 1.684995 -4.798895 -21.830999 10.426640 0.000004 22.037369 7.501047 -0.000000 0.000000 0.000000 -4.569999 11.014856 -2.160827 0.985944 -0.305354 22.181792 6.846168 14.133780 59.164185 26.033659 9.717714 -5.322559 -6.138784 11.265857 -0.474549 -2.464803 -1.573983 2.681931 4.280804 -15.890124 -2.422281 1.836937 -18.253848 -10.474601 -2.646280 -1.527804 1.527803 -2.576142 5.196131 1.002210 -1.994613 -1.151586 1.151576 -0.000000 -0.000001 -0.000000 -9.108296 -0.517859 2.259812 0.815700 -7.341107 29.157794 1.921622 0.060852 16.932189 4.528747 2.821027 11.169175 -0.000001 0.000001 0.000004 -9.532479 0.000011 0.000021 1.407107 -8.005368 40.252234 4.496532 0.856185 17.907007 6.072494 4.827154 12.436046 0.000001 -0.000001 0.000002 -9.103575 -0.043123 -1.865073 2.288412 -9.822523 52.036032 5.775681 0.626590 14.653874 6.114402 6.591904 12.764644 0.000001 -0.000000 -0.000001 -8.076689 -0.486707 -3.806297 0.338219 -8.339697 60.178058 8.289392 -0.760751 14.380709 10.669917 0.128443 12.856356 -0.000000 0.000002 -0.000000 4.570402 11.014666 -2.160809 0.689585 -14.228796 -8.637392 -9.882087 -24.041381 -60.936311 26.847756 -22.525930 11.256585 -5.675387 -9.320755 -0.916810 2.466096 -1.576207 2.681708 44.596300 5.219657 31.157950 2.426594 20.932149 10.996086 2.647903 -1.528752 1.528760 -4.919813 -10.077538 -2.388550 1.998928 -1.154067 1.154092 0.000001 -0.000004 -0.000002 9.109299 -0.518012 2.259919 0.151989 4.943529 -1.638175 2.820246 1.655652 -38.330912 4.413798 -2.297972 -5.968704 0.000000 0.000001 -0.000000 9.533404 0.000001 0.000012 0.398725 6.167460 -16.901271 5.414330 0.826675 -39.294823 5.759513 -0.110551 -7.097905 0.000001 -0.000001 -0.000001 9.104491 -0.043008 -1.865086 0.946335 8.272359 -29.052169 6.596228 1.106063 -36.045343 5.813647 -0.147290 -11.497866 0.000003 -0.000002 -0.000006 8.077782 -0.486892 -3.806287 0.962324 7.927188 -30.796042 9.105809 2.503113 -35.791400 9.816667 4.559762 -7.505628 0.000000 -0.000000 -0.000001 -8.207820 -6.751716 -1.599537 -25.778824 8.241620 0.433053 32.942347 -23.863489 -0.684469 1.419388 -0.305282 3.368576 -0.492730 0.014380 0.178523 0.000000 0.000000 -0.000000 8.207784 -6.751719 -1.599547 -2.898926 12.813359 -3.737545 17.606187 -5.437153 -0.298449 -12.402503 -0.534474 9.555225 -0.040366 -0.013480 0.029591 -0.000000 -0.000000 -0.000000 
196.831497 102.064575 179.960922 -178.036572 17.733789 175.865077 0.000004 10.181535 0.131532 2.853681 -1.842143 -0.520754 5.709767 -3.636678 -0.644690 5.709764 -3.636675 -0.644691 0.000011 16.740330 -2.049026 1.777462 -8.584434 0.569060 0.000000 9.617838 1.684978 -4.916773 -22.187620 10.841753 0.000034 22.037384 7.501066 -0.000000 0.000001 -0.000000 -4.569988 11.014863 -2.160835 1.045107 -0.685079 22.672092 7.847166 14.048476 58.432740 26.958231 9.505001 -5.481366 -6.202694 11.499207 -0.264433 -2.464787 -1.573958 2.681895 4.280807 -15.890124 -2.422285 1.836939 -18.253850 -10.474601 -2.646273 -1.527785 1.527824 -2.576139 5.196133 1.002213 -1.994601 -1.151585 1.151572 0.000002 -0.000007 0.000001 -9.108296 -0.517855 2.259783 0.815699 -7.341106 29.157794 1.921623 0.060852 16.932189 4.528745 2.821029 11.169178 0.000000 -0.000001 -0.000001 -9.532498 0.000029 -0.000012 1.407105 -8.005368 40.252238 4.496534 0.856183 17.907002 6.072493 4.827155 12.436049 0.000000 -0.000000 0.000000 -9.103582 -0.043107 -1.865117 2.288412 -9.822524 52.036035 5.775681 0.626591 14.653875 6.114403 6.591905 12.764643 0.000001 -0.000001 0.000000 -8.076700 -0.486700 -3.806304 0.338219 -8.339697 60.178065 8.289391 -0.760751 14.380707 10.669917 0.128443 12.856354 -0.000002 0.000001 -0.000000 4.570415 11.014673 -2.160824 0.731597 -14.794063 -8.265141 -10.476056 -24.787245 -60.386153 26.159444 -23.992252 11.546499 -5.560491 -9.288547 0.143772 2.466115 -1.576190 2.681677 44.596300 5.219658 31.157940 2.426590 20.932144 10.996086 2.647889 -1.528732 1.528745 -4.919817 -10.077535 -2.388548 1.998916 -1.154091 1.154112 -0.000001 -0.000004 0.000007 9.109295 -0.517981 2.259890 0.151990 4.943534 -1.638177 2.820244 1.655653 -38.330912 4.413801 -2.297972 -5.968701 -0.000001 0.000000 0.000001 9.533400 0.000016 -0.000007 0.398723 6.167461 -16.901272 5.414329 0.826678 -39.294823 5.759514 -0.110552 -7.097903 0.000000 0.000001 0.000001 9.104506 -0.042962 -1.865115 0.946333 8.272360 -29.052172 6.596229 1.106065 -36.045343 5.813648 -0.147294 -11.497864 0.000002 -0.000000 -0.000003 8.077796 -0.486873 -3.806301 0.962324 7.927190 -30.796042 9.105810 2.503114 -35.791397 9.816662 4.559760 -7.505627 -0.000001 0.000000 0.000001 -8.207788 -6.751717 -1.599542 -25.955291 7.036041 0.971413 22.746207 -19.891864 -0.513771 3.617809 -0.352120 3.859986 -0.290283 0.063915 0.428695 0.000000 -0.000001 -0.000000 8.207819 -6.751713 -1.599547 -0.044310 13.345469 -3.501298 14.928239 -7.370687 -0.396523 -12.765425 -0.492619 9.474102 -0.000038 -0.028928 -0.000003 -0.000000 -0.000000 0.000000 
